<svg xmlns="http://www.w3.org/2000/svg" viewBox="0 0 64 64">
  <defs>
    <linearGradient id="bg" x1="10" y1="8" x2="54" y2="58" gradientUnits="userSpaceOnUse">
      <stop stop-color="#38bdf8"/>
      <stop offset=".52" stop-color="#2563eb"/>
      <stop offset="1" stop-color="#7c3aed"/>
    </linearGradient>
  </defs>
  <rect width="64" height="64" rx="14" fill="url(#bg)"/>
  <path fill="#fff" d="M19 13h26a6 6 0 0 1 6 6v6a7 7 0 0 0 0 14v6a6 6 0 0 1-6 6H19a6 6 0 0 1-6-6v-6a7 7 0 0 0 0-14v-6a6 6 0 0 1 6-6Z"/>
  <path fill="#0f172a" d="M24 23h16a3 3 0 0 1 0 6H24a3 3 0 0 1 0-6Zm0 12h10a3 3 0 0 1 0 6H24a3 3 0 0 1 0-6Z"/>
  <circle cx="43" cy="38" r="7" fill="#22c55e"/>
  <path fill="none" stroke="#fff" stroke-linecap="round" stroke-linejoin="round" stroke-width="3" d="m40 38 2 2 5-5"/>
</svg>
